<svg width="356" height="73" viewBox="0 0 356 73" fill="none" xmlns="http://www.w3.org/2000/svg">
<rect width="356" height="73" rx="18" fill="#3B82F6"/>
<path d="M42.1859 8.81818H45.97L54.8677 30.5511H55.1746L64.0723 8.81818H67.8564V35H64.8905V15.108H64.6348L56.453 35H53.5893L45.4075 15.108H45.1518V35H42.1859V8.81818ZM83.6592 26.9716V15.3636H86.6762V35H83.6592V31.6761H83.4546C82.9944 32.6733 82.2785 33.5213 81.3069 34.2202C80.3353 34.9105 79.108 35.2557 77.6251 35.2557C76.3978 35.2557 75.3069 34.9872 74.3524 34.4503C73.3978 33.9048 72.6478 33.0866 72.1024 31.9957C71.5569 30.8963 71.2842 29.5114 71.2842 27.8409V15.3636H74.3012V27.6364C74.3012 29.0682 74.7018 30.2102 75.5029 31.0625C76.3126 31.9148 77.3438 32.3409 78.5967 32.3409C79.3467 32.3409 80.1095 32.1491 80.885 31.7656C81.6691 31.3821 82.3254 30.794 82.8538 30.0014C83.3907 29.2088 83.6592 28.1989 83.6592 26.9716ZM103.591 19.7614L100.881 20.5284C100.711 20.0767 100.459 19.6378 100.127 19.2116C99.8029 18.777 99.3597 18.419 98.7972 18.1378C98.2347 17.8565 97.5145 17.7159 96.6367 17.7159C95.435 17.7159 94.4336 17.9929 93.6324 18.5469C92.8398 19.0923 92.4435 19.7869 92.4435 20.6307C92.4435 21.3807 92.7162 21.973 93.2617 22.4077C93.8071 22.8423 94.6594 23.2045 95.8185 23.4943L98.7333 24.2102C100.489 24.6364 101.797 25.2884 102.658 26.1662C103.519 27.0355 103.949 28.1562 103.949 29.5284C103.949 30.6534 103.625 31.6591 102.978 32.5455C102.338 33.4318 101.444 34.1307 100.293 34.642C99.1424 35.1534 97.8043 35.4091 96.2787 35.4091C94.2759 35.4091 92.6182 34.9744 91.3057 34.1051C89.9932 33.2358 89.1623 31.9659 88.8128 30.2955L91.6765 29.5795C91.9492 30.6364 92.4648 31.429 93.2233 31.9574C93.9904 32.4858 94.9918 32.75 96.2276 32.75C97.6339 32.75 98.7503 32.4517 99.577 31.8551C100.412 31.25 100.83 30.5256 100.83 29.6818C100.83 29 100.591 28.429 100.114 27.9688C99.6367 27.5 98.9037 27.1506 97.9151 26.9205L94.6424 26.1534C92.8441 25.7273 91.5231 25.0668 90.6793 24.1719C89.8441 23.2685 89.4265 22.1392 89.4265 20.7841C89.4265 19.6761 89.7375 18.696 90.3597 17.8438C90.9904 16.9915 91.8469 16.3224 92.9293 15.8366C94.0202 15.3509 95.256 15.108 96.6367 15.108C98.5799 15.108 100.105 15.5341 101.213 16.3864C102.33 17.2386 103.122 18.3636 103.591 19.7614ZM114.511 15.3636V17.9205H104.334V15.3636H114.511ZM107.3 10.6591H110.317V29.375C110.317 30.2273 110.441 30.8665 110.688 31.2926C110.944 31.7102 111.268 31.9915 111.66 32.1364C112.06 32.2727 112.482 32.3409 112.925 32.3409C113.258 32.3409 113.53 32.3239 113.743 32.2898C113.957 32.2472 114.127 32.2131 114.255 32.1875L114.868 34.8977C114.664 34.9744 114.378 35.0511 114.012 35.1278C113.645 35.2131 113.181 35.2557 112.618 35.2557C111.766 35.2557 110.931 35.0724 110.113 34.706C109.303 34.3395 108.63 33.7812 108.093 33.0312C107.564 32.2812 107.3 31.3352 107.3 30.1932V10.6591ZM122.307 35.4602C121.063 35.4602 119.934 35.2259 118.919 34.7571C117.905 34.2798 117.1 33.5938 116.503 32.6989C115.907 31.7955 115.608 30.7045 115.608 29.4261C115.608 28.3011 115.83 27.3892 116.273 26.6903C116.716 25.983 117.309 25.429 118.05 25.0284C118.792 24.6278 119.61 24.3295 120.505 24.1335C121.408 23.929 122.316 23.767 123.228 23.6477C124.421 23.4943 125.388 23.3793 126.13 23.3026C126.88 23.2173 127.425 23.0767 127.766 22.8807C128.116 22.6847 128.29 22.3437 128.29 21.858V21.7557C128.29 20.4943 127.945 19.5142 127.255 18.8153C126.573 18.1165 125.537 17.767 124.148 17.767C122.708 17.767 121.579 18.0824 120.76 18.7131C119.942 19.3437 119.367 20.017 119.035 20.733L116.171 19.7102C116.682 18.517 117.364 17.5881 118.216 16.9233C119.077 16.25 120.015 15.7812 121.029 15.517C122.052 15.2443 123.057 15.108 124.046 15.108C124.677 15.108 125.401 15.1847 126.219 15.3381C127.046 15.483 127.843 15.7855 128.61 16.2457C129.385 16.706 130.029 17.4006 130.54 18.3295C131.052 19.2585 131.307 20.5028 131.307 22.0625V35H128.29V32.3409H128.137C127.932 32.767 127.591 33.223 127.114 33.7088C126.637 34.1946 126.002 34.608 125.209 34.9489C124.417 35.2898 123.449 35.4602 122.307 35.4602ZM122.768 32.75C123.961 32.75 124.966 32.5156 125.785 32.0469C126.611 31.5781 127.233 30.973 127.651 30.2315C128.077 29.4901 128.29 28.7102 128.29 27.892V25.1307C128.162 25.2841 127.881 25.4247 127.446 25.5526C127.02 25.6719 126.526 25.7784 125.964 25.8722C125.41 25.9574 124.868 26.0341 124.34 26.1023C123.82 26.1619 123.398 26.2131 123.074 26.2557C122.29 26.358 121.557 26.5241 120.875 26.7543C120.202 26.9759 119.657 27.3125 119.239 27.7642C118.83 28.2074 118.625 28.8125 118.625 29.5795C118.625 30.6278 119.013 31.4205 119.789 31.9574C120.573 32.4858 121.566 32.75 122.768 32.75ZM143.038 15.3636V17.9205H132.453V15.3636H143.038ZM135.624 35V12.6534C135.624 11.5284 135.888 10.5909 136.416 9.84091C136.945 9.09091 137.631 8.52841 138.474 8.15341C139.318 7.77841 140.209 7.59091 141.146 7.59091C141.888 7.59091 142.493 7.65057 142.962 7.76989C143.43 7.8892 143.78 8 144.01 8.10227L143.141 10.7102C142.987 10.6591 142.774 10.5952 142.501 10.5185C142.237 10.4418 141.888 10.4034 141.453 10.4034C140.456 10.4034 139.736 10.6548 139.293 11.1577C138.858 11.6605 138.641 12.3977 138.641 13.3693V35H135.624ZM149.963 35.4602C148.718 35.4602 147.589 35.2259 146.575 34.7571C145.561 34.2798 144.755 33.5938 144.159 32.6989C143.562 31.7955 143.264 30.7045 143.264 29.4261C143.264 28.3011 143.485 27.3892 143.928 26.6903C144.372 25.983 144.964 25.429 145.705 25.0284C146.447 24.6278 147.265 24.3295 148.16 24.1335C149.063 23.929 149.971 23.767 150.883 23.6477C152.076 23.4943 153.044 23.3793 153.785 23.3026C154.535 23.2173 155.08 23.0767 155.421 22.8807C155.771 22.6847 155.946 22.3437 155.946 21.858V21.7557C155.946 20.4943 155.6 19.5142 154.91 18.8153C154.228 18.1165 153.193 17.767 151.803 17.767C150.363 17.767 149.234 18.0824 148.416 18.7131C147.598 19.3437 147.022 20.017 146.69 20.733L143.826 19.7102C144.338 18.517 145.019 17.5881 145.872 16.9233C146.732 16.25 147.67 15.7812 148.684 15.517C149.707 15.2443 150.713 15.108 151.701 15.108C152.332 15.108 153.056 15.1847 153.875 15.3381C154.701 15.483 155.498 15.7855 156.265 16.2457C157.041 16.706 157.684 17.4006 158.196 18.3295C158.707 19.2585 158.963 20.5028 158.963 22.0625V35H155.946V32.3409H155.792C155.588 32.767 155.247 33.223 154.769 33.7088C154.292 34.1946 153.657 34.608 152.865 34.9489C152.072 35.2898 151.105 35.4602 149.963 35.4602ZM150.423 32.75C151.616 32.75 152.622 32.5156 153.44 32.0469C154.267 31.5781 154.889 30.973 155.306 30.2315C155.732 29.4901 155.946 28.7102 155.946 27.892V25.1307C155.818 25.2841 155.536 25.4247 155.102 25.5526C154.676 25.6719 154.181 25.7784 153.619 25.8722C153.065 25.9574 152.524 26.0341 151.995 26.1023C151.475 26.1619 151.053 26.2131 150.73 26.2557C149.946 26.358 149.213 26.5241 148.531 26.7543C147.857 26.9759 147.312 27.3125 146.894 27.7642C146.485 28.2074 146.281 28.8125 146.281 29.5795C146.281 30.6278 146.669 31.4205 147.444 31.9574C148.228 32.4858 149.221 32.75 150.423 32.75ZM169.963 35V8.81818H173.134V21.8068H173.441L185.202 8.81818H189.344L178.35 20.6307L189.344 35H185.509L176.407 22.8295L173.134 26.5114V35H169.963ZM201.663 26.9716V15.3636H204.68V35H201.663V31.6761H201.459C200.998 32.6733 200.283 33.5213 199.311 34.2202C198.339 34.9105 197.112 35.2557 195.629 35.2557C194.402 35.2557 193.311 34.9872 192.356 34.4503C191.402 33.9048 190.652 33.0866 190.106 31.9957C189.561 30.8963 189.288 29.5114 189.288 27.8409V15.3636H192.305V27.6364C192.305 29.0682 192.706 30.2102 193.507 31.0625C194.317 31.9148 195.348 32.3409 196.601 32.3409C197.351 32.3409 198.114 32.1491 198.889 31.7656C199.673 31.3821 200.329 30.794 200.858 30.0014C201.395 29.2088 201.663 28.1989 201.663 26.9716ZM207.686 35V15.3636H210.601V18.3295H210.806C211.163 17.358 211.811 16.5696 212.749 15.9645C213.686 15.3594 214.743 15.0568 215.919 15.0568C216.141 15.0568 216.418 15.0611 216.75 15.0696C217.083 15.0781 217.334 15.0909 217.504 15.108V18.1761C217.402 18.1506 217.168 18.1122 216.801 18.0611C216.443 18.0014 216.064 17.9716 215.663 17.9716C214.709 17.9716 213.857 18.1719 213.107 18.5724C212.365 18.9645 211.777 19.5099 211.342 20.2088C210.916 20.8991 210.703 21.6875 210.703 22.5739V35H207.686ZM228.331 15.3636V17.9205H218.155V15.3636H228.331ZM221.121 10.6591H224.138V29.375C224.138 30.2273 224.261 30.8665 224.509 31.2926C224.764 31.7102 225.088 31.9915 225.48 32.1364C225.881 32.2727 226.303 32.3409 226.746 32.3409C227.078 32.3409 227.351 32.3239 227.564 32.2898C227.777 32.2472 227.947 32.2131 228.075 32.1875L228.689 34.8977C228.484 34.9744 228.199 35.0511 227.832 35.1278C227.466 35.2131 227.001 35.2557 226.439 35.2557C225.587 35.2557 224.751 35.0724 223.933 34.706C223.124 34.3395 222.45 33.7812 221.913 33.0312C221.385 32.2812 221.121 31.3352 221.121 30.1932V10.6591ZM242.724 26.9716V15.3636H245.741V35H242.724V31.6761H242.52C242.06 32.6733 241.344 33.5213 240.372 34.2202C239.4 34.9105 238.173 35.2557 236.69 35.2557C235.463 35.2557 234.372 34.9872 233.418 34.4503C232.463 33.9048 231.713 33.0866 231.168 31.9957C230.622 30.8963 230.349 29.5114 230.349 27.8409V15.3636H233.366V27.6364C233.366 29.0682 233.767 30.2102 234.568 31.0625C235.378 31.9148 236.409 32.3409 237.662 32.3409C238.412 32.3409 239.175 32.1491 239.95 31.7656C240.734 31.3821 241.391 30.794 241.919 30.0014C242.456 29.2088 242.724 28.1989 242.724 26.9716ZM251.764 8.81818V35H248.747V8.81818H251.764ZM254.77 35V15.3636H257.685V18.4318H257.941C258.35 17.3835 259.01 16.5696 259.922 15.9901C260.834 15.402 261.929 15.108 263.208 15.108C264.503 15.108 265.581 15.402 266.442 15.9901C267.311 16.5696 267.989 17.3835 268.475 18.4318H268.679C269.182 17.4176 269.936 16.6122 270.942 16.0156C271.948 15.4105 273.154 15.108 274.56 15.108C276.316 15.108 277.752 15.6577 278.868 16.7571C279.985 17.848 280.543 19.5483 280.543 21.858V35H277.526V21.858C277.526 20.4091 277.13 19.3736 276.337 18.7514C275.544 18.1293 274.611 17.8182 273.537 17.8182C272.157 17.8182 271.087 18.2358 270.329 19.071C269.57 19.8977 269.191 20.946 269.191 22.2159V35H266.123V21.5511C266.123 20.4347 265.76 19.5355 265.036 18.8537C264.311 18.1634 263.378 17.8182 262.236 17.8182C261.452 17.8182 260.719 18.027 260.037 18.4446C259.364 18.8622 258.819 19.4418 258.401 20.1832C257.992 20.9162 257.787 21.7642 257.787 22.7273V35H254.77ZM295.914 26.9716V15.3636H298.931V35H295.914V31.6761H295.71C295.25 32.6733 294.534 33.5213 293.562 34.2202C292.59 34.9105 291.363 35.2557 289.88 35.2557C288.653 35.2557 287.562 34.9872 286.608 34.4503C285.653 33.9048 284.903 33.0866 284.358 31.9957C283.812 30.8963 283.539 29.5114 283.539 27.8409V15.3636H286.556V27.6364C286.556 29.0682 286.957 30.2102 287.758 31.0625C288.568 31.9148 289.599 32.3409 290.852 32.3409C291.602 32.3409 292.365 32.1491 293.14 31.7656C293.924 31.3821 294.581 30.794 295.109 30.0014C295.646 29.2088 295.914 28.1989 295.914 26.9716ZM315.846 19.7614L313.136 20.5284C312.966 20.0767 312.714 19.6378 312.382 19.2116C312.058 18.777 311.615 18.419 311.052 18.1378C310.49 17.8565 309.77 17.7159 308.892 17.7159C307.69 17.7159 306.689 17.9929 305.888 18.5469C305.095 19.0923 304.699 19.7869 304.699 20.6307C304.699 21.3807 304.971 21.973 305.517 22.4077C306.062 22.8423 306.915 23.2045 308.074 23.4943L310.988 24.2102C312.744 24.6364 314.052 25.2884 314.913 26.1662C315.774 27.0355 316.204 28.1562 316.204 29.5284C316.204 30.6534 315.88 31.6591 315.233 32.5455C314.594 33.4318 313.699 34.1307 312.548 34.642C311.398 35.1534 310.059 35.4091 308.534 35.4091C306.531 35.4091 304.873 34.9744 303.561 34.1051C302.248 33.2358 301.417 31.9659 301.068 30.2955L303.932 29.5795C304.204 30.6364 304.72 31.429 305.478 31.9574C306.246 32.4858 307.247 32.75 308.483 32.75C309.889 32.75 311.005 32.4517 311.832 31.8551C312.667 31.25 313.085 30.5256 313.085 29.6818C313.085 29 312.846 28.429 312.369 27.9688C311.892 27.5 311.159 27.1506 310.17 26.9205L306.898 26.1534C305.099 25.7273 303.778 25.0668 302.934 24.1719C302.099 23.2685 301.682 22.1392 301.682 20.7841C301.682 19.6761 301.993 18.696 302.615 17.8438C303.246 16.9915 304.102 16.3224 305.184 15.8366C306.275 15.3509 307.511 15.108 308.892 15.108C310.835 15.108 312.361 15.5341 313.469 16.3864C314.585 17.2386 315.378 18.3636 315.846 19.7614ZM307.409 34.8977H309.915L309.71 35.9205C310.375 36.0227 310.984 36.2997 311.538 36.7514C312.092 37.2116 312.369 37.9403 312.369 38.9375C312.369 40.0369 311.913 40.9318 311.001 41.6222C310.098 42.321 308.764 42.6705 307 42.6705L306.898 40.6761C307.69 40.6761 308.346 40.5483 308.866 40.2926C309.395 40.0455 309.659 39.6278 309.659 39.0398C309.659 38.4517 309.442 38.0511 309.007 37.8381C308.572 37.625 307.869 37.4801 306.898 37.4034L307.409 34.8977Z" fill="white"/>
<path d="M53.4097 53.9091C53.3074 53.0455 52.8927 52.375 52.1654 51.8977C51.4381 51.4205 50.5461 51.1818 49.4893 51.1818C48.7165 51.1818 48.0404 51.3068 47.4609 51.5568C46.887 51.8068 46.4381 52.1506 46.1143 52.5881C45.7961 53.0256 45.637 53.5227 45.637 54.0795C45.637 54.5455 45.7478 54.946 45.9694 55.2812C46.1966 55.6108 46.4864 55.8864 46.8387 56.108C47.191 56.3239 47.5603 56.5028 47.9466 56.6449C48.333 56.7812 48.6881 56.892 49.012 56.9773L50.7847 57.4545C51.2393 57.5739 51.7449 57.7386 52.3018 57.9489C52.8643 58.1591 53.4012 58.446 53.9126 58.8097C54.4296 59.1676 54.8557 59.6278 55.191 60.1903C55.5262 60.7528 55.6938 61.4432 55.6938 62.2614C55.6938 63.2045 55.4466 64.0568 54.9523 64.8182C54.4637 65.5795 53.7478 66.1847 52.8046 66.6335C51.8671 67.0824 50.7279 67.3068 49.387 67.3068C48.137 67.3068 47.0546 67.1051 46.1398 66.7017C45.2307 66.2983 44.5148 65.7358 43.9921 65.0142C43.4751 64.2926 43.1824 63.4545 43.1143 62.5H45.2961C45.3529 63.1591 45.5745 63.7045 45.9609 64.1364C46.3529 64.5625 46.8472 64.8807 47.4438 65.0909C48.0461 65.2955 48.6938 65.3977 49.387 65.3977C50.1938 65.3977 50.9182 65.267 51.5603 65.0057C52.2023 64.7386 52.7109 64.3693 53.0859 63.8977C53.4609 63.4205 53.6484 62.8636 53.6484 62.2273C53.6484 61.6477 53.4864 61.1761 53.1626 60.8125C52.8387 60.4489 52.4126 60.1534 51.8841 59.9261C51.3557 59.6989 50.7847 59.5 50.1711 59.3295L48.0234 58.7159C46.6597 58.3239 45.5802 57.7642 44.7847 57.0369C43.9893 56.3097 43.5915 55.358 43.5915 54.1818C43.5915 53.2045 43.8557 52.3523 44.3841 51.625C44.9182 50.892 45.6341 50.3239 46.5319 49.9205C47.4353 49.5114 48.4438 49.3068 49.5574 49.3068C50.6824 49.3068 51.6824 49.5085 52.5574 49.9119C53.4324 50.3097 54.1256 50.8551 54.637 51.5483C55.154 52.2415 55.4268 53.0284 55.4552 53.9091H53.4097ZM58.1762 67V53.9091H60.1876V67H58.1762ZM59.1989 51.7273C58.8069 51.7273 58.4688 51.5938 58.1847 51.3267C57.9063 51.0597 57.7671 50.7386 57.7671 50.3636C57.7671 49.9886 57.9063 49.6676 58.1847 49.4006C58.4688 49.1335 58.8069 49 59.1989 49C59.591 49 59.9262 49.1335 60.2046 49.4006C60.4887 49.6676 60.6308 49.9886 60.6308 50.3636C60.6308 50.7386 60.4887 51.0597 60.2046 51.3267C59.9262 51.5938 59.591 51.7273 59.1989 51.7273ZM68.4356 72.1818C67.464 72.1818 66.6288 72.0568 65.9299 71.8068C65.2311 71.5625 64.6487 71.2386 64.1828 70.8352C63.7226 70.4375 63.3561 70.0114 63.0834 69.5568L64.6856 68.4318C64.8674 68.6705 65.0976 68.9432 65.376 69.25C65.6544 69.5625 66.0351 69.8324 66.518 70.0597C67.0066 70.2926 67.6459 70.4091 68.4356 70.4091C69.4924 70.4091 70.3646 70.1534 71.0521 69.642C71.7396 69.1307 72.0834 68.3295 72.0834 67.2386V64.5795H71.9129C71.7652 64.8182 71.5549 65.1136 71.2822 65.4659C71.0152 65.8125 70.6288 66.1222 70.1231 66.3949C69.6231 66.6619 68.947 66.7955 68.0947 66.7955C67.0379 66.7955 66.089 66.5455 65.2481 66.0455C64.4129 65.5455 63.751 64.8182 63.2623 63.8636C62.7794 62.9091 62.5379 61.75 62.5379 60.3864C62.5379 59.0455 62.7737 57.8778 63.2453 56.8835C63.7169 55.8835 64.3731 55.1108 65.214 54.5653C66.0549 54.0142 67.0265 53.7386 68.1288 53.7386C68.9811 53.7386 69.6572 53.8807 70.1572 54.1648C70.6629 54.4432 71.0493 54.7614 71.3163 55.1193C71.589 55.4716 71.7993 55.7614 71.947 55.9886H72.1515V53.9091H74.0947V67.375C74.0947 68.5 73.839 69.4148 73.3277 70.1193C72.822 70.8295 72.1402 71.3494 71.2822 71.679C70.4299 72.0142 69.4811 72.1818 68.4356 72.1818ZM68.3674 64.9886C69.1743 64.9886 69.8561 64.804 70.4129 64.4347C70.9697 64.0653 71.393 63.5341 71.6828 62.8409C71.9726 62.1477 72.1174 61.3182 72.1174 60.3523C72.1174 59.4091 71.9754 58.5767 71.6913 57.8551C71.4072 57.1335 70.9868 56.5682 70.4299 56.1591C69.8731 55.75 69.1856 55.5455 68.3674 55.5455C67.5152 55.5455 66.8049 55.7614 66.2368 56.1932C65.6743 56.625 65.251 57.2045 64.9669 57.9318C64.6885 58.6591 64.5493 59.4659 64.5493 60.3523C64.5493 61.2614 64.6913 62.0653 64.9754 62.7642C65.2652 63.4574 65.6913 64.0028 66.2538 64.4006C66.822 64.7926 67.5265 64.9886 68.3674 64.9886ZM82.3747 67.2727C81.1929 67.2727 80.156 66.9915 79.2639 66.429C78.3776 65.8665 77.6844 65.0795 77.1844 64.0682C76.6901 63.0568 76.4429 61.875 76.4429 60.5227C76.4429 59.1591 76.6901 57.9687 77.1844 56.9517C77.6844 55.9347 78.3776 55.1449 79.2639 54.5824C80.156 54.0199 81.1929 53.7386 82.3747 53.7386C83.5565 53.7386 84.5906 54.0199 85.477 54.5824C86.369 55.1449 87.0622 55.9347 87.5565 56.9517C88.0565 57.9687 88.3065 59.1591 88.3065 60.5227C88.3065 61.875 88.0565 63.0568 87.5565 64.0682C87.0622 65.0795 86.369 65.8665 85.477 66.429C84.5906 66.9915 83.5565 67.2727 82.3747 67.2727ZM82.3747 65.4659C83.2724 65.4659 84.0111 65.2358 84.5906 64.7756C85.1702 64.3153 85.5991 63.7102 85.8776 62.9602C86.156 62.2102 86.2952 61.3977 86.2952 60.5227C86.2952 59.6477 86.156 58.8324 85.8776 58.0767C85.5991 57.321 85.1702 56.7102 84.5906 56.2443C84.0111 55.7784 83.2724 55.5455 82.3747 55.5455C81.477 55.5455 80.7383 55.7784 80.1588 56.2443C79.5793 56.7102 79.1503 57.321 78.8719 58.0767C78.5935 58.8324 78.4543 59.6477 78.4543 60.5227C78.4543 61.3977 78.5935 62.2102 78.8719 62.9602C79.1503 63.7102 79.5793 64.3153 80.1588 64.7756C80.7383 65.2358 81.477 65.4659 82.3747 65.4659ZM90.6568 67V53.9091H92.6V55.8864H92.7364C92.975 55.2386 93.4068 54.7131 94.0318 54.3097C94.6568 53.9062 95.3614 53.7045 96.1455 53.7045C96.2932 53.7045 96.4779 53.7074 96.6995 53.7131C96.921 53.7187 97.0887 53.7273 97.2023 53.7386V55.7841C97.1341 55.767 96.9779 55.7415 96.7335 55.7074C96.4949 55.6676 96.2421 55.6477 95.975 55.6477C95.3387 55.6477 94.7705 55.7812 94.2705 56.0483C93.7762 56.3097 93.3841 56.6733 93.0943 57.1392C92.8103 57.5994 92.6682 58.125 92.6682 58.7159V67H90.6568ZM105.38 53.9091V55.6136H98.5959V53.9091H105.38ZM100.573 50.7727H102.585V63.25C102.585 63.8182 102.667 64.2443 102.832 64.5284C103.002 64.8068 103.218 64.9943 103.479 65.0909C103.747 65.1818 104.028 65.2273 104.323 65.2273C104.545 65.2273 104.727 65.2159 104.869 65.1932C105.011 65.1648 105.124 65.142 105.21 65.125L105.619 66.9318C105.482 66.983 105.292 67.0341 105.048 67.0852C104.803 67.142 104.494 67.1705 104.119 67.1705C103.55 67.1705 102.994 67.0483 102.448 66.804C101.908 66.5597 101.46 66.1875 101.102 65.6875C100.749 65.1875 100.573 64.5568 100.573 63.7955V50.7727ZM111.538 67.3068C110.708 67.3068 109.955 67.1506 109.279 66.8381C108.603 66.5199 108.066 66.0625 107.669 65.4659C107.271 64.8636 107.072 64.1364 107.072 63.2841C107.072 62.5341 107.22 61.9261 107.515 61.4602C107.811 60.9886 108.205 60.6193 108.7 60.3523C109.194 60.0852 109.74 59.8864 110.336 59.7557C110.938 59.6193 111.544 59.5114 112.152 59.4318C112.947 59.3295 113.592 59.2528 114.086 59.2017C114.586 59.1449 114.95 59.0511 115.177 58.9205C115.41 58.7898 115.527 58.5625 115.527 58.2386V58.1705C115.527 57.3295 115.296 56.6761 114.836 56.2102C114.382 55.7443 113.691 55.5114 112.765 55.5114C111.805 55.5114 111.052 55.7216 110.507 56.142C109.961 56.5625 109.578 57.0114 109.356 57.4886L107.447 56.8068C107.788 56.0114 108.242 55.392 108.811 54.9489C109.384 54.5 110.009 54.1875 110.686 54.0114C111.367 53.8295 112.038 53.7386 112.697 53.7386C113.117 53.7386 113.6 53.7898 114.146 53.892C114.697 53.9886 115.228 54.1903 115.74 54.4972C116.257 54.804 116.686 55.267 117.027 55.8864C117.367 56.5057 117.538 57.3352 117.538 58.375V67H115.527V65.2273H115.424C115.288 65.5114 115.061 65.8153 114.742 66.1392C114.424 66.4631 114.001 66.7386 113.473 66.9659C112.944 67.1932 112.299 67.3068 111.538 67.3068ZM111.845 65.5C112.64 65.5 113.311 65.3438 113.856 65.0312C114.407 64.7188 114.822 64.3153 115.1 63.821C115.384 63.3267 115.527 62.8068 115.527 62.2614V60.4205C115.441 60.5227 115.254 60.6165 114.964 60.7017C114.68 60.7812 114.35 60.8523 113.975 60.9148C113.606 60.9716 113.245 61.0227 112.893 61.0682C112.546 61.108 112.265 61.142 112.049 61.1705C111.527 61.2386 111.038 61.3494 110.583 61.5028C110.134 61.6506 109.771 61.875 109.492 62.1761C109.22 62.4716 109.083 62.875 109.083 63.3864C109.083 64.0852 109.342 64.6136 109.859 64.9716C110.382 65.3239 111.044 65.5 111.845 65.5ZM127.508 67H125.292L131.701 49.5455H133.883L140.292 67H138.076L132.86 52.3068H132.724L127.508 67ZM128.326 60.1818H137.258V62.0568H128.326V60.1818ZM142.018 67V53.9091H143.961V55.8864H144.097C144.336 55.2386 144.768 54.7131 145.393 54.3097C146.018 53.9062 146.722 53.7045 147.506 53.7045C147.654 53.7045 147.839 53.7074 148.06 53.7131C148.282 53.7187 148.45 53.7273 148.563 53.7386V55.7841C148.495 55.767 148.339 55.7415 148.094 55.7074C147.856 55.6676 147.603 55.6477 147.336 55.6477C146.7 55.6477 146.131 55.7812 145.631 56.0483C145.137 56.3097 144.745 56.6733 144.455 57.1392C144.171 57.5994 144.029 58.125 144.029 58.7159V67H142.018ZM154.08 67.3068C153.25 67.3068 152.497 67.1506 151.821 66.8381C151.145 66.5199 150.608 66.0625 150.21 65.4659C149.813 64.8636 149.614 64.1364 149.614 63.2841C149.614 62.5341 149.762 61.9261 150.057 61.4602C150.352 60.9886 150.747 60.6193 151.242 60.3523C151.736 60.0852 152.281 59.8864 152.878 59.7557C153.48 59.6193 154.085 59.5114 154.693 59.4318C155.489 59.3295 156.134 59.2528 156.628 59.2017C157.128 59.1449 157.492 59.0511 157.719 58.9205C157.952 58.7898 158.068 58.5625 158.068 58.2386V58.1705C158.068 57.3295 157.838 56.6761 157.378 56.2102C156.923 55.7443 156.233 55.5114 155.307 55.5114C154.347 55.5114 153.594 55.7216 153.048 56.142C152.503 56.5625 152.12 57.0114 151.898 57.4886L149.989 56.8068C150.33 56.0114 150.784 55.392 151.352 54.9489C151.926 54.5 152.551 54.1875 153.227 54.0114C153.909 53.8295 154.58 53.7386 155.239 53.7386C155.659 53.7386 156.142 53.7898 156.688 53.892C157.239 53.9886 157.77 54.1903 158.281 54.4972C158.798 54.804 159.227 55.267 159.568 55.8864C159.909 56.5057 160.08 57.3352 160.08 58.375V67H158.068V65.2273H157.966C157.83 65.5114 157.602 65.8153 157.284 66.1392C156.966 66.4631 156.543 66.7386 156.014 66.9659C155.486 67.1932 154.841 67.3068 154.08 67.3068ZM154.387 65.5C155.182 65.5 155.852 65.3438 156.398 65.0312C156.949 64.7188 157.364 64.3153 157.642 63.821C157.926 63.3267 158.068 62.8068 158.068 62.2614V60.4205C157.983 60.5227 157.796 60.6165 157.506 60.7017C157.222 60.7812 156.892 60.8523 156.517 60.9148C156.148 60.9716 155.787 61.0227 155.435 61.0682C155.088 61.108 154.807 61.142 154.591 61.1705C154.068 61.2386 153.58 61.3494 153.125 61.5028C152.676 61.6506 152.313 61.875 152.034 62.1761C151.762 62.4716 151.625 62.875 151.625 63.3864C151.625 64.0852 151.884 64.6136 152.401 64.9716C152.923 65.3239 153.585 65.5 154.387 65.5ZM168.349 67.2727C167.122 67.2727 166.065 66.983 165.179 66.4034C164.292 65.8239 163.61 65.0256 163.133 64.0085C162.656 62.9915 162.417 61.8295 162.417 60.5227C162.417 59.1932 162.662 58.0199 163.15 57.0028C163.645 55.9801 164.332 55.1818 165.213 54.608C166.099 54.0284 167.133 53.7386 168.315 53.7386C169.235 53.7386 170.065 53.9091 170.804 54.25C171.542 54.5909 172.147 55.0682 172.619 55.6818C173.091 56.2955 173.383 57.0114 173.497 57.8295H171.485C171.332 57.233 170.991 56.7045 170.463 56.2443C169.94 55.7784 169.235 55.5455 168.349 55.5455C167.565 55.5455 166.878 55.75 166.287 56.1591C165.701 56.5625 165.244 57.1335 164.914 57.8722C164.591 58.6051 164.429 59.4659 164.429 60.4545C164.429 61.4659 164.588 62.3466 164.906 63.0966C165.23 63.8466 165.684 64.429 166.27 64.8438C166.86 65.2585 167.554 65.4659 168.349 65.4659C168.872 65.4659 169.346 65.375 169.772 65.1932C170.199 65.0114 170.559 64.75 170.855 64.4091C171.15 64.0682 171.36 63.6591 171.485 63.1818H173.497C173.383 63.9545 173.102 64.6506 172.653 65.2699C172.21 65.8835 171.622 66.3722 170.889 66.7358C170.162 67.0938 169.315 67.2727 168.349 67.2727ZM175.717 67V53.9091H177.729V67H175.717ZM182.704 49.5455V67H180.692V49.5455H182.704ZM185.668 67V53.9091H187.679V67H185.668ZM192.518 62.2273L192.484 59.7386H192.893L198.62 53.9091H201.109L195.007 60.0795H194.836L192.518 62.2273ZM190.643 67V49.5455H192.654V67H190.643ZM198.961 67L193.848 60.5227L195.279 59.125L201.518 67H198.961ZM209.281 67V49.5455H211.394V57.3182H220.701V49.5455H222.815V67H220.701V59.1932H211.394V67H209.281ZM226.053 67V53.9091H228.065V67H226.053ZM227.076 51.7273C226.684 51.7273 226.346 51.5938 226.062 51.3267C225.784 51.0597 225.644 50.7386 225.644 50.3636C225.644 49.9886 225.784 49.6676 226.062 49.4006C226.346 49.1335 226.684 49 227.076 49C227.468 49 227.803 49.1335 228.082 49.4006C228.366 49.6676 228.508 49.9886 228.508 50.3636C228.508 50.7386 228.366 51.0597 228.082 51.3267C227.803 51.5938 227.468 51.7273 227.076 51.7273ZM230.654 67V65.4659L238.086 55.9205V55.7841H230.892V53.9091H240.676V55.5114L233.449 64.9886V65.125H240.915V67H230.654ZM243.293 67V53.9091H245.236V55.9545H245.407C245.679 55.2557 246.12 54.7131 246.728 54.3267C247.336 53.9347 248.066 53.7386 248.918 53.7386C249.782 53.7386 250.5 53.9347 251.074 54.3267C251.654 54.7131 252.106 55.2557 252.429 55.9545H252.566C252.901 55.2784 253.404 54.7415 254.074 54.3438C254.745 53.9403 255.549 53.7386 256.486 53.7386C257.657 53.7386 258.614 54.1051 259.358 54.8381C260.103 55.5653 260.475 56.6989 260.475 58.2386V67H258.464V58.2386C258.464 57.2727 258.199 56.5824 257.671 56.1676C257.143 55.7528 256.52 55.5455 255.804 55.5455C254.884 55.5455 254.171 55.8239 253.665 56.3807C253.16 56.9318 252.907 57.6307 252.907 58.4773V67H250.861V58.0341C250.861 57.2898 250.62 56.6903 250.137 56.2358C249.654 55.7756 249.032 55.5455 248.27 55.5455C247.748 55.5455 247.259 55.6847 246.804 55.9631C246.356 56.2415 245.992 56.6278 245.714 57.1222C245.441 57.6108 245.304 58.1761 245.304 58.8182V67H243.293ZM268.921 67.2727C267.66 67.2727 266.572 66.9943 265.657 66.4375C264.748 65.875 264.046 65.0909 263.552 64.0852C263.063 63.0739 262.819 61.8977 262.819 60.5568C262.819 59.2159 263.063 58.0341 263.552 57.0114C264.046 55.983 264.734 55.1818 265.614 54.608C266.501 54.0284 267.535 53.7386 268.717 53.7386C269.398 53.7386 270.072 53.8523 270.736 54.0795C271.401 54.3068 272.006 54.6761 272.552 55.1875C273.097 55.6932 273.532 56.3636 273.856 57.1989C274.18 58.0341 274.342 59.0625 274.342 60.2841V61.1364H264.251V59.3977H272.296C272.296 58.6591 272.148 58 271.853 57.4205C271.563 56.8409 271.148 56.3835 270.609 56.0483C270.075 55.7131 269.444 55.5455 268.717 55.5455C267.915 55.5455 267.222 55.7443 266.637 56.142C266.057 56.5341 265.611 57.0455 265.299 57.6761C264.986 58.3068 264.83 58.983 264.83 59.7045V60.8636C264.83 61.8523 265.001 62.6903 265.342 63.3778C265.688 64.0597 266.168 64.5795 266.782 64.9375C267.396 65.2898 268.109 65.4659 268.921 65.4659C269.45 65.4659 269.927 65.392 270.353 65.2443C270.785 65.0909 271.157 64.8636 271.469 64.5625C271.782 64.2557 272.023 63.875 272.194 63.4205L274.137 63.9659C273.932 64.625 273.589 65.2045 273.106 65.7045C272.623 66.1989 272.026 66.5852 271.316 66.8636C270.606 67.1364 269.807 67.2727 268.921 67.2727ZM282.374 53.9091V55.6136H275.59V53.9091H282.374ZM277.568 50.7727H279.579V63.25C279.579 63.8182 279.661 64.2443 279.826 64.5284C279.997 64.8068 280.212 64.9943 280.474 65.0909C280.741 65.1818 281.022 65.2273 281.318 65.2273C281.539 65.2273 281.721 65.2159 281.863 65.1932C282.005 65.1648 282.119 65.142 282.204 65.125L282.613 66.9318C282.477 66.983 282.286 67.0341 282.042 67.0852C281.798 67.142 281.488 67.1705 281.113 67.1705C280.545 67.1705 279.988 67.0483 279.443 66.804C278.903 66.5597 278.454 66.1875 278.096 65.6875C277.744 65.1875 277.568 64.5568 277.568 63.7955V50.7727ZM286.973 49.5455V67H284.961V49.5455H286.973ZM295.425 67.2727C294.164 67.2727 293.076 66.9943 292.161 66.4375C291.252 65.875 290.55 65.0909 290.056 64.0852C289.567 63.0739 289.323 61.8977 289.323 60.5568C289.323 59.2159 289.567 58.0341 290.056 57.0114C290.55 55.983 291.238 55.1818 292.118 54.608C293.005 54.0284 294.039 53.7386 295.221 53.7386C295.902 53.7386 296.576 53.8523 297.241 54.0795C297.905 54.3068 298.51 54.6761 299.056 55.1875C299.601 55.6932 300.036 56.3636 300.36 57.1989C300.684 58.0341 300.846 59.0625 300.846 60.2841V61.1364H290.755V59.3977H298.8C298.8 58.6591 298.652 58 298.357 57.4205C298.067 56.8409 297.652 56.3835 297.113 56.0483C296.579 55.7131 295.948 55.5455 295.221 55.5455C294.42 55.5455 293.726 55.7443 293.141 56.142C292.562 56.5341 292.116 57.0455 291.803 57.6761C291.491 58.3068 291.334 58.983 291.334 59.7045V60.8636C291.334 61.8523 291.505 62.6903 291.846 63.3778C292.192 64.0597 292.672 64.5795 293.286 64.9375C293.9 65.2898 294.613 65.4659 295.425 65.4659C295.954 65.4659 296.431 65.392 296.857 65.2443C297.289 65.0909 297.661 64.8636 297.973 64.5625C298.286 64.2557 298.527 63.875 298.698 63.4205L300.641 63.9659C300.437 64.625 300.093 65.2045 299.61 65.7045C299.127 66.1989 298.53 66.5852 297.82 66.8636C297.11 67.1364 296.312 67.2727 295.425 67.2727ZM303.185 67V53.9091H305.128V55.8864H305.265C305.503 55.2386 305.935 54.7131 306.56 54.3097C307.185 53.9062 307.89 53.7045 308.674 53.7045C308.822 53.7045 309.006 53.7074 309.228 53.7131C309.449 53.7187 309.617 53.7273 309.731 53.7386V55.7841C309.663 55.767 309.506 55.7415 309.262 55.7074C309.023 55.6676 308.77 55.6477 308.503 55.6477C307.867 55.6477 307.299 55.7812 306.799 56.0483C306.305 56.3097 305.913 56.6733 305.623 57.1392C305.339 57.5994 305.197 58.125 305.197 58.7159V67H303.185ZM311.395 67V53.9091H313.406V67H311.395ZM312.418 51.7273C312.026 51.7273 311.688 51.5938 311.404 51.3267C311.125 51.0597 310.986 50.7386 310.986 50.3636C310.986 49.9886 311.125 49.6676 311.404 49.4006C311.688 49.1335 312.026 49 312.418 49C312.81 49 313.145 49.1335 313.423 49.4006C313.707 49.6676 313.85 49.9886 313.85 50.3636C313.85 50.7386 313.707 51.0597 313.423 51.3267C313.145 51.5938 312.81 51.7273 312.418 51.7273Z" fill="white"/>
</svg>
